<svg width="18" height="18" viewBox="0 0 18 18" fill="none" xmlns="http://www.w3.org/2000/svg">
<path d="M11.0177 9.00047L14.4467 12.4295C14.6694 12.6522 14.6694 13.0139 14.4467 13.2367L13.2367 14.4466C13.014 14.6693 12.6529 14.6693 12.4295 14.4466L8.99998 11.0176L5.57042 14.4466C5.34767 14.6693 4.98654 14.6693 4.76379 14.4466L3.55329 13.2367C3.33054 13.0139 3.33054 12.6528 3.55329 12.4295L6.98286 9.00047L3.55329 5.57091C3.33054 5.34816 3.33054 4.98647 3.55329 4.76372L4.76436 3.55378C4.98711 3.33103 5.34823 3.33103 5.57098 3.55378L8.99998 6.98334L12.4295 3.55378C12.6523 3.33103 13.0134 3.33103 13.2367 3.55378L14.4467 4.76428C14.6694 4.98703 14.6694 5.34816 14.4467 5.57147L11.0177 9.00047Z" fill="white"/>
</svg>
