<svg width="18" height="18" viewBox="0 0 18 18" fill="none" xmlns="http://www.w3.org/2000/svg">
<path d="M15 7.5H14.7443L12.885 3.1605C12.7695 2.89034 12.5773 2.66003 12.3321 2.49817C12.0869 2.3363 11.7996 2.25001 11.5057 2.25H3.5655C3.23974 2.25101 2.92309 2.35761 2.66306 2.55382C2.40302 2.75004 2.21361 3.02527 2.12325 3.33825L0.7785 8.0445C0.775737 8.07216 0.774485 8.09995 0.77475 8.12775C0.762698 8.16764 0.754412 8.20857 0.75 8.25V12C0.75 12.3978 0.908035 12.7794 1.18934 13.0607C1.47064 13.342 1.85218 13.5 2.25 13.5H2.3565C2.5202 14.1432 2.89354 14.7135 3.41754 15.1208C3.94153 15.5282 4.58631 15.7493 5.25 15.7493C5.91369 15.7493 6.55847 15.5282 7.08246 15.1208C7.60646 14.7135 7.9798 14.1432 8.1435 13.5H9.8565C10.0202 14.1432 10.3935 14.7135 10.9175 15.1208C11.4415 15.5282 12.0863 15.7493 12.75 15.7493C13.4137 15.7493 14.0585 15.5282 14.5825 15.1208C15.1065 14.7135 15.4798 14.1432 15.6435 13.5H15.75C16.1478 13.5 16.5294 13.342 16.8107 13.0607C17.092 12.7794 17.25 12.3978 17.25 12V9.75C17.25 9.15326 17.0129 8.58097 16.591 8.15901C16.169 7.73705 15.5967 7.5 15 7.5ZM9 3.75H11.5057L13.1122 7.5H9V3.75ZM3.5655 3.75H7.5V7.5H2.49375L3.5655 3.75ZM5.25 14.25C4.95333 14.25 4.66332 14.162 4.41664 13.9972C4.16997 13.8324 3.97771 13.5981 3.86418 13.324C3.75065 13.0499 3.72094 12.7483 3.77882 12.4574C3.8367 12.1664 3.97956 11.8991 4.18934 11.6893C4.39912 11.4796 4.66639 11.3367 4.95736 11.2788C5.24834 11.2209 5.54994 11.2506 5.82403 11.3642C6.09811 11.4777 6.33238 11.67 6.4972 11.9166C6.66203 12.1633 6.75 12.4533 6.75 12.75C6.75 13.1478 6.59196 13.5294 6.31066 13.8107C6.02936 14.092 5.64782 14.25 5.25 14.25ZM12.75 14.25C12.4533 14.25 12.1633 14.162 11.9166 13.9972C11.67 13.8324 11.4777 13.5981 11.3642 13.324C11.2506 13.0499 11.2209 12.7483 11.2788 12.4574C11.3367 12.1664 11.4796 11.8991 11.6893 11.6893C11.8991 11.4796 12.1664 11.3367 12.4574 11.2788C12.7483 11.2209 13.0499 11.2506 13.324 11.3642C13.5981 11.4777 13.8324 11.67 13.9972 11.9166C14.162 12.1633 14.25 12.4533 14.25 12.75C14.25 13.1478 14.092 13.5294 13.8107 13.8107C13.5294 14.092 13.1478 14.25 12.75 14.25ZM15.75 12H15.6435C15.4798 11.3568 15.1065 10.7865 14.5825 10.3792C14.0585 9.97184 13.4137 9.7507 12.75 9.7507C12.0863 9.7507 11.4415 9.97184 10.9175 10.3792C10.3935 10.7865 10.0202 11.3568 9.8565 12H8.1435C7.9798 11.3568 7.60646 10.7865 7.08246 10.3792C6.55847 9.97184 5.91369 9.7507 5.25 9.7507C4.58631 9.7507 3.94153 9.97184 3.41754 10.3792C2.89354 10.7865 2.5202 11.3568 2.3565 12H2.25V9H15C15.1989 9 15.3897 9.07902 15.5303 9.21967C15.671 9.36032 15.75 9.55109 15.75 9.75V12Z" fill="black"/>
</svg>
