<svg width="13" height="13" viewBox="0 0 13 13" fill="none" xmlns="http://www.w3.org/2000/svg">
<path fill-rule="evenodd" clip-rule="evenodd" d="M0.293 1.29299C0.480528 1.10552 0.734836 1.0002 1 1.0002C1.26516 1.0002 1.51947 1.10552 1.707 1.29299L6 5.58599L10.293 1.29299C10.3852 1.19748 10.4956 1.1213 10.6176 1.06889C10.7396 1.01648 10.8708 0.988893 11.0036 0.987739C11.1364 0.986585 11.2681 1.01189 11.391 1.06217C11.5139 1.11245 11.6255 1.1867 11.7194 1.28059C11.8133 1.37449 11.8875 1.48614 11.9378 1.60904C11.9881 1.73193 12.0134 1.86361 12.0123 1.99639C12.0111 2.12917 11.9835 2.26039 11.9311 2.38239C11.8787 2.5044 11.8025 2.61474 11.707 2.70699L7.414 6.99999L11.707 11.293C11.8892 11.4816 11.99 11.7342 11.9877 11.9964C11.9854 12.2586 11.8802 12.5094 11.6948 12.6948C11.5094 12.8802 11.2586 12.9854 10.9964 12.9877C10.7342 12.9899 10.4816 12.8891 10.293 12.707L6 8.41399L1.707 12.707C1.5184 12.8891 1.2658 12.9899 1.0036 12.9877C0.741402 12.9854 0.49059 12.8802 0.305182 12.6948C0.119773 12.5094 0.0146042 12.2586 0.0123258 11.9964C0.0100473 11.7342 0.110842 11.4816 0.293 11.293L4.586 6.99999L0.293 2.70699C0.105529 2.51946 0.000213623 2.26515 0.000213623 1.99999C0.000213623 1.73483 0.105529 1.48052 0.293 1.29299Z" fill="black"/>
</svg>
