<svg width="16" height="11" viewBox="0 0 16 11" fill="none" xmlns="http://www.w3.org/2000/svg">
<path d="M0.645711 2.29258L0.646089 2.2922L1.7496 1.18869C2.16975 0.768547 2.84832 0.769094 3.26308 1.18831L3.26353 1.18876L7.97544 5.89091L8.04615 5.96147L8.11679 5.89084L12.8238 1.18381C13.244 0.763664 13.9225 0.764211 14.3373 1.18343L14.3378 1.18396L15.4461 2.28732C15.8662 2.70746 15.8657 3.38604 15.4465 3.8008L15.4461 3.80117L8.80545 10.4418L8.80508 10.4422C8.38516 10.8666 7.70658 10.8665 7.28671 10.4467L0.646089 3.80606C0.225947 3.38591 0.226494 2.70734 0.645711 2.29258Z" fill="black" stroke="black" stroke-width="0.2"/>
</svg>
