<svg width="18" height="18" viewBox="0 0 18 18" fill="none" xmlns="http://www.w3.org/2000/svg">
<g clip-path="url(#clip0_215_18)">
<path fill-rule="evenodd" clip-rule="evenodd" d="M9.00147 5.45215C9.70316 5.45215 10.3891 5.66023 10.9725 6.05007C11.556 6.43992 12.0107 6.99402 12.2793 7.6423C12.5478 8.29059 12.618 9.00394 12.4811 9.69216C12.3443 10.3804 12.0064 11.0125 11.5102 11.5087C11.014 12.0049 10.3818 12.3428 9.69362 12.4797C9.0054 12.6166 8.29205 12.5463 7.64376 12.2778C6.99548 12.0093 6.44138 11.5545 6.05153 10.9711C5.66169 10.3876 5.45361 9.7017 5.45361 9C5.45342 8.53404 5.54506 8.07261 5.72329 7.64207C5.90151 7.21154 6.16284 6.82035 6.49233 6.49087C6.82181 6.16138 7.213 5.90005 7.64353 5.72183C8.07407 5.5436 8.5355 5.45196 9.00147 5.45215ZM5.8667 4.97665e-06H12.1362C12.3917 -0.000187959 12.6447 0.050008 12.8807 0.147719C13.1167 0.24543 13.3311 0.388736 13.5117 0.569433C13.6922 0.750129 13.8354 0.964667 13.9329 1.20076C14.0305 1.43686 14.0805 1.68987 14.0801 1.94532V16.0547C14.0805 16.3101 14.0305 16.5632 13.9329 16.7992C13.8354 17.0353 13.6922 17.2499 13.5117 17.4306C13.3311 17.6113 13.1167 17.7546 12.8807 17.8523C12.6447 17.95 12.3917 18.0002 12.1362 18H5.8667C5.35077 18 4.85597 17.7951 4.49116 17.4302C4.12634 17.0654 3.92139 16.5706 3.92139 16.0547V1.94239C3.92119 1.68701 3.9714 1.4341 4.06913 1.19816C4.16686 0.962225 4.31019 0.747892 4.4909 0.567448C4.67162 0.387004 4.88617 0.243998 5.12225 0.146625C5.35834 0.0492518 5.61132 -0.000573312 5.8667 4.97665e-06ZM4.49414 15.2988H13.5059V2.11524H4.49414V15.2988ZM8.99854 15.9082C9.15678 15.9082 9.31148 15.9552 9.44304 16.0431C9.57459 16.131 9.67711 16.256 9.7376 16.4023C9.79809 16.5485 9.81384 16.7094 9.78286 16.8646C9.75188 17.0198 9.67556 17.1623 9.56356 17.2741C9.45156 17.3859 9.30891 17.4619 9.15367 17.4926C8.99843 17.5233 8.83757 17.5073 8.69145 17.4465C8.54533 17.3858 8.42052 17.283 8.33281 17.1513C8.2451 17.0196 8.19844 16.8648 8.19873 16.7065C8.19873 16.6016 8.21943 16.4977 8.25964 16.4007C8.29985 16.3037 8.35879 16.2157 8.43308 16.1415C8.50737 16.0674 8.59555 16.0086 8.69257 15.9686C8.7896 15.9285 8.89357 15.908 8.99854 15.9082ZM9.57129 6.4878L9.35303 8.4961H10.3359L8.3833 11.7524L8.82275 9.46875L7.6582 9.48926L9.59766 6.24756L9.57129 6.4878Z" fill="black"/>
</g>
<defs>
<clipPath id="clip0_215_18">
<rect width="18" height="18" fill="white"/>
</clipPath>
</defs>
</svg>
