<svg width="16" height="15" viewBox="0 0 16 15" fill="none" xmlns="http://www.w3.org/2000/svg">
<g clip-path="url(#clip0_141_17)">
<path fill-rule="evenodd" clip-rule="evenodd" d="M10.7708 6.99582C10.0359 7.74485 9.03928 8.16566 8.00006 8.16566C6.96085 8.16566 5.9642 7.74485 5.22936 6.99582C4.49452 6.24678 4.0817 5.23087 4.0817 4.17157C4.0817 3.11228 4.49452 2.09637 5.22936 1.34733C5.9642 0.598294 6.96085 0.17749 8.00006 0.17749C9.03928 0.17749 10.0359 0.598294 10.7708 1.34733C11.5056 2.09637 11.9184 3.11228 11.9184 4.17157C11.9184 5.23087 11.5056 6.24678 10.7708 6.99582ZM15.8368 14.8225V13.4911C15.8368 12.1597 14.5307 8.16566 8.00006 8.16566C1.46945 8.16566 0.16333 12.1597 0.16333 13.4911L0.16333 14.8225H15.8368ZM9.8472 6.0544C10.3371 5.55504 10.6123 4.87777 10.6123 4.17157C10.6123 3.46538 10.3371 2.7881 9.8472 2.28874C9.35731 1.78939 8.69287 1.50885 8.00006 1.50885C7.30725 1.50885 6.64282 1.78939 6.15293 2.28874C5.66304 2.7881 5.38782 3.46538 5.38782 4.17157C5.38782 4.87777 5.66304 5.55504 6.15293 6.0544C6.64282 6.55376 7.30725 6.83429 8.00006 6.83429C8.69287 6.83429 9.35731 6.55376 9.8472 6.0544ZM13.444 11.2704C14.3295 12.1731 14.5294 14.4896 14.5307 14.8171H8.00006H1.46945C1.46945 14.8171 1.6706 12.1731 2.55615 11.2704C3.40774 10.4023 5.00904 9.49702 8.00006 9.49702C10.9898 9.49702 12.5924 10.4023 13.444 11.2704Z" fill="#333E48"/>
</g>
<defs>
<clipPath id="clip0_141_17">
<rect width="16" height="15" fill="white"/>
</clipPath>
</defs>
</svg>
